<svg xmlns="http://www.w3.org/2000/svg" width="64" height="64" fill="none"><path fill="#fff" d="M20.68 47.24q-4.707 0-7.911-2.083t-4.785-5.519q-1.545-3.473-1.544-7.602t1.544-7.565a12.86 12.86 0 0 1 4.785-5.557q3.204-2.084 7.873-2.084 5.325 0 8.644 2.509 3.358 2.469 4.438 6.792h-5.441q-.81-2.355-2.779-3.628-1.93-1.311-4.9-1.312-2.972 0-5.018 1.428-2.044 1.428-3.087 3.898-1.004 2.431-1.004 5.441 0 3.127 1.081 5.596t3.203 3.898 5.172 1.428q2.817 0 4.862-1.235t2.895-3.358q.346-.887.501-2.084.078-.54.155-.849.116-.347.308-.54l-.463-.463q-.462.463-.965.579-.501.116-1.659.116h-4.052v-4.13h11.539V46.74h-4.477v-4.438h-.617q0 2.007-2.046 3.319-1.157.772-2.817 1.196a13.5 13.5 0 0 1-3.435.425m23.172-.502h-4.901V17.292H58.44v4.4H43.852v8.104H56.82v4.361H43.852z"/></svg>