<svg xmlns="http://www.w3.org/2000/svg" width="234" height="234" fill="none"><path fill="#7D7D7D" d="M182.808 17C201.691 17 217 32.309 217 51.192v131.616C217 201.691 201.691 217 182.808 217H51.192C32.31 217 17 201.691 17 182.808V51.192C17 32.31 32.309 17 51.192 17zM84.76 69.92l-34.376 92.496h26.784l4.464-13.816h34.385l4.463 13.816h27.6L114.696 69.92zm66.736 19.672v72.824h24.784V89.592zm-42.943 35.928H89.08l9.736-30.152zm55.343-60.624c-7.655-.063-13.1 4.587-13.2 11.21v.634c.1 6.624 5.537 11.274 13.2 11.211 7.775.064 13.272-4.735 13.2-11.527.072-6.792-5.416-11.593-13.2-11.529"/></svg>