<svg xmlns="http://www.w3.org/2000/svg" width="64" height="64" fill="none"><path fill="#000" d="M20.24 47.24q-4.707 0-7.91-2.083t-4.786-5.519Q5.999 36.165 6 32.036t1.544-7.565a12.86 12.86 0 0 1 4.785-5.557q3.203-2.084 7.873-2.084 5.325 0 8.644 2.509 3.358 2.469 4.439 6.792h-5.442q-.81-2.355-2.779-3.628-1.93-1.311-4.9-1.312-2.972 0-5.018 1.428-2.044 1.428-3.087 3.898-1.003 2.431-1.003 5.441 0 3.127 1.08 5.596t3.203 3.898 5.172 1.428q2.817 0 4.862-1.235t2.895-3.358q.346-.887.501-2.084.078-.54.155-.849.116-.347.308-.54l-.463-.463q-.462.463-.964.579t-1.66.116h-4.052v-4.13h11.539V46.74h-4.477v-4.438h-.617q0 2.007-2.046 3.319-1.157.772-2.817 1.196-1.62.425-3.435.425m23.172-.502h-4.901V17.292H58v4.4H43.412v8.104H56.38v4.361H43.412z"/></svg>