<svg xmlns="http://www.w3.org/2000/svg" width="984" height="800" fill="none"><g clip-path="url(#a)"><path fill="#7D7D7D" d="M980.387 445.492c-5.769-40.594-19.829-79.091-41.803-114.409-19.163-30.823-43.752-58.237-73.101-81.537l.079-.073L557.319 12.725a9 9 0 0 0-.695-.553C546.376 4.322 532.501.002 517.569.002c-14.95 0-29.368 4.33-40.577 12.195-12.051 8.419-18.939 19.588-19.42 31.478-.441 11.093 4.851 21.766 14.939 30.086 19.838 15.653 39.632 31.647 59.453 47.66 19.236 15.547 39.057 31.558 58.782 47.146l-377.548-.256c-43.177 0-72.576 20.275-78.624 54.22-2.657 14.868 2.032 31.215 12.515 43.736 11.122 13.273 27.27 20.595 45.466 20.595l28.782.019c39.761 0 79.698-.098 119.58-.195l38.033-.088L36.293 540.104l-1.36.995c-19.14 14.67-31.67 35.237-34.373 56.424-2.05 16.052 1.695 30.72 10.833 42.434 10.89 13.966 27.894 21.647 47.883 21.647 19.636 0 39.672-7.441 56.443-20.989l185.04-151.432c-.79 7.394-1.751 18.243-1.641 26.116.208 12.467 4.21 37.481 10.546 57.789 13.093 41.735 35.145 79.921 65.544 113.455 31.629 34.889 70.151 62.553 114.488 82.205 46.873 20.731 97.261 31.254 149.77 31.254h.487c52.676-.127 103.224-10.818 150.249-31.785 44.41-19.885 82.914-47.66 114.424-82.544 30.36-33.705 52.382-71.954 65.449-113.655a290.8 290.8 0 0 0 12.346-63.503c1.614-20.839.919-42.043-2.034-63.023M643.304 645.527c-115.721 0-209.563-83.946-209.563-187.505 0-103.547 93.844-187.493 209.563-187.493 115.724 0 209.556 83.946 209.556 187.493.004 103.559-93.832 187.505-209.556 187.505m120.852-203.981c1.707 30.908-10.639 59.607-32.318 80.852-22.053 21.643-53.521 35.237-88.711 35.237-35.173 0-66.647-13.594-88.708-35.237-21.67-21.245-33.99-49.94-32.293-80.827 1.662-30.023 16.307-56.525 38.366-75.289 21.691-18.451 50.817-29.708 82.634-29.708 31.82 0 60.938 11.261 82.631 29.708 22.07 18.764 36.719 45.247 38.399 75.264"/></g><defs><clipPath id="a"><path fill="#fff" d="M0 0h983.284v800H0z"/></clipPath></defs></svg>