<svg xmlns="http://www.w3.org/2000/svg" width="240" height="234" fill="none"><path fill="#7D7D7D" d="M185.804 17c20.085 0 36.325 16.24 36.325 36.325v127.35c0 20.085-16.24 36.325-36.325 36.325H53.325C33.24 217 17 200.76 17 180.675V53.325C17 33.24 33.24 17 53.325 17zm5.983 44.444c-.085-.342-.428-.684-.855-.598h-17.35c-.598 0-.855.342-.855.94v27.009c-1.026-.085-1.881-.085-2.65-.171a15 15 0 0 0-1.795-.086c-8.461 0-15.641 1.624-21.624 4.957-5.641 3.077-10.341 7.693-13.589 13.248a35.1 35.1 0 0 0-4.701 18.034c0 7.778 1.539 14.274 4.701 19.488 3.077 5.042 7.521 9.145 12.906 11.624 5.726 2.649 12.051 3.931 18.376 3.845 4.444 0 8.804-.427 13.163-1.196 4.786-.855 9.487-2.222 13.931-4.102.598-.257.855-.77.855-1.368-.086-1.453-.171-3.162-.342-4.957-.085-1.88-.171-3.59-.171-5.129zM48.453 68.282c-.342 0-.684.086-.854.342-.171.171-.086.513.17.855l25.898 43.845-26.581 43.59c-.171.256-.256.599-.171.94 0 .428.257.257.599.257h18.802c.94 0 1.624-.086 1.966-.94 1.966-3.504 3.932-7.18 5.898-10.77 1.88-3.589 3.846-7.265 5.812-10.94s3.932-7.35 5.727-11.025h.17c2.052 3.76 4.103 7.436 6.154 11.111s4.018 7.265 5.813 10.769c1.794 3.59 3.674 7.094 5.469 10.684.598.855 1.539.939 2.906.939h19.573c.513-.085.855.171.94-.17.085-.342 0-.684-.171-1.026l-27.35-44.872 25.64-42.307c.171-.171.342-.512.257-.598-.085-.427-.513-.684-.94-.599h-18.034c-.428-.085-.769 0-1.111.171-.256.171-.428.513-.514.855-1.88 3.504-3.76 7.18-5.726 10.77s-3.931 7.179-5.812 10.769c-1.88 3.59-3.76 7.264-5.555 11.025h-.171a188 188 0 0 0-5.727-10.854c-2.136-3.59-4.102-7.18-6.153-10.855-1.966-3.675-3.847-7.351-5.47-11.026-.257-.342-.513-.598-.855-.769a5 5 0 0 0-1.197-.17zM167.6 104.436c.94 0 1.88.085 2.82.17.769.086 1.538.257 2.308.428v37.607c-1.026.341-1.966.513-3.077.427-1.111.086-2.307.171-3.589.171-2.393 0-4.787-.342-7.094-1.111a14.8 14.8 0 0 1-5.813-3.419c-1.709-1.709-2.991-3.761-3.845-6.068-1.026-2.821-1.539-5.813-1.454-8.804.001-4.444.941-8.12 2.821-10.855a19.2 19.2 0 0 1 7.264-6.324c2.992-1.538 6.325-2.222 9.659-2.222"/></svg>