<svg xmlns="http://www.w3.org/2000/svg" width="234" height="234" fill="none"><path fill="#7D7D7D" d="M217 17v200H17V17zm-47.778 90.759c-16.784 0-27.524 10.73-27.524 24.825 0 15.302 9.01 22.54 22.572 28.317l4.698 2.016c8.571 3.749 13.682 6.032 13.682 12.477 0 5.377-4.974 9.269-12.761 9.269-9.27 0-14.512-4.834-18.54-11.412l-15.273 8.873c5.518 10.901 16.794 19.219 34.247 19.219 17.851 0 31.144-9.27 31.144-26.191 0-15.695-9.016-22.676-24.985-29.524l-4.698-2.013c-8.063-3.492-11.555-5.774-11.555-11.412 0-4.562 3.488-8.053 8.993-8.054 5.397 0 8.873 2.276 12.095 8.054l14.635-9.396c-6.19-10.889-14.781-15.048-26.73-15.048m-62.098 1.073v63.904c0 9.394-3.896 11.81-10.07 11.81-6.457 0-9.143-4.429-12.095-9.667l-15.299 9.262c4.432 9.379 13.146 17.167 28.194 17.167 16.653 0 28.063-8.857 28.063-28.318v-64.158z"/></svg>