<svg xmlns="http://www.w3.org/2000/svg" width="234" height="234" fill="none"><path fill="#7D7D7D" d="M181.133 17C200.942 17 217 33.059 217 52.868v128.265C217 200.942 200.942 217 181.133 217H52.868C33.06 217 17 200.942 17 181.133V52.868C17 33.058 33.059 17 52.868 17zm-18.776 72.126c-17.75 0-29.996 8.256-29.997 23.117 0 14.586 12.247 19.127 23.393 22.43 5.779 1.789 8.807 2.89 8.807 5.641 0 2.477-2.202 3.853-7.018 3.853-7.018 0-17.2-3.027-24.493-7.843l-.139 21.328c7.431 4.128 16.512 5.78 26.145 5.78 18.301 0 29.998-9.633 29.998-23.944 0-14.998-10.734-19.126-23.531-22.979-6.604-2.064-8.806-2.752-8.806-5.229 0-2.064 1.789-3.44 6.33-3.44 6.192 0 15.687 2.615 20.503 5.505l.138-20.365c-6.055-2.615-12.936-3.854-21.33-3.854M50.785 70v92.193H76.38v-25.869h12.66c18.713 0 38.666-9.632 38.666-33.575C127.705 82.246 112.982 70 86.837 70zm37.428 21.879c8.119 0 12.798 4.128 12.798 11.421 0 7.98-5.505 11.145-13.348 11.145H76.38V91.879z"/></svg>