<svg xmlns="http://www.w3.org/2000/svg" width="234" height="234" fill="none"><g clip-path="url(#a)"><path fill="#7D7D7D" d="M119.894 22C144.227 36.16 168.653 50.16 193 64.293c2.653 1.72 5.72 3.28 7.293 6.16.827 3.773.454 7.68.52 11.52-.053 24.867-.04 49.734 0 74.6-.053 2.547.04 5.147-.506 7.667-1.6 2.48-4.307 3.92-6.734 5.453-20.866 11.934-41.639 24.041-62.439 36.08-4.427 2.467-8.654 5.441-13.481 7.121-2.973-.427-5.56-2.134-8.16-3.507C88.413 196.96 67.093 184.96 46 172.56c-4.2-2.347-8.28-4.92-12-7.987v-94.44c5.107-5.04 11.747-7.973 17.787-11.693C72.8 46.254 93.76 33.973 114.88 22zM48.178 72.402c-2.23-.004-4.46.063-6.685.318 3.547 3.466 8.347 5.054 12.453 7.68C74.8 92.747 96 104.52 116.733 117.066c1.08 6.027.601 12.174.667 18.267.027 20.853-.053 41.72-.013 62.573 0 2.054.183 4.097.488 6.121l.139.867c1.56-2.094 3.041-4.254 4.307-6.534 22.44-38.92 44.92-77.8 67.213-116.8 1.653-2.734 2.92-5.667 3.894-8.707-4.107-.326-8.22-.403-12.335-.405-3.087-.001-6.175.039-9.261.048q-1.542.006-3.085-.003-27.35-.02-54.708-.02h-.001q-27.357 0-54.718.02-1.112.036-2.226.038c-2.97.01-5.944-.122-8.916-.129"/></g><defs><clipPath id="a"><path fill="#fff" d="M0 0h234v234H0z"/></clipPath></defs></svg>