<svg xmlns="http://www.w3.org/2000/svg" width="234" height="234" fill="none"><g fill="#7D7D7D" clip-path="url(#a)"><path d="M32.62 162.921c-1.888 3.079-4.009 6.652-5.81 9.499a5.81 5.81 0 0 0 1.946 7.902l37.765 23.24a5.813 5.813 0 0 0 8.046-1.976c1.511-2.527 3.457-5.81 5.578-9.325 14.96-24.692 30.008-21.671 57.141-8.715l37.445 17.808a5.8 5.8 0 0 0 4.521.2 5.8 5.8 0 0 0 3.293-3.105l17.982-40.67a5.82 5.82 0 0 0 .105-4.4 5.82 5.82 0 0 0-3.01-3.211c-7.902-3.718-23.618-11.126-37.765-17.952-50.895-24.722-94.15-23.124-127.237 30.705"/><path d="M201.951 70.632c1.889-3.08 4.009-6.653 5.81-9.5a5.81 5.81 0 0 0-1.946-7.901L168.05 29.99a5.8 5.8 0 0 0-6.704.15 5.8 5.8 0 0 0-1.575 1.767c-1.51 2.528-3.457 5.81-5.577 9.325-14.961 24.693-30.008 21.671-57.14 8.715l-37.33-17.72a5.81 5.81 0 0 0-7.814 2.905l-17.982 40.67a5.81 5.81 0 0 0 2.905 7.61c7.902 3.719 23.618 11.126 37.765 17.953 51.011 24.692 94.266 23.036 127.353-30.734"/></g><defs><clipPath id="a"><path fill="#fff" d="M0 0h234v234H0z"/></clipPath></defs></svg>