<svg xmlns="http://www.w3.org/2000/svg" width="234" height="234" fill="none"><path fill="#7D7D7D" d="M207.686 18h-95.828a43.26 43.26 0 0 0 43.259 43.258h17.652v17.043c.016 23.87 19.362 43.216 43.231 43.231V26.314A8.314 8.314 0 0 0 207.686 18"/><path fill="#7D7D7D" d="M160.271 65.748H64.443c.016 23.87 19.362 43.215 43.231 43.231h17.653v17.098c.03 23.869 19.389 43.203 43.258 43.203V74.062a8.314 8.314 0 0 0-8.314-8.314"/><path fill="#7D7D7D" d="M112.828 113.468H17c0 23.891 19.367 43.258 43.258 43.258h17.708v17.043c.016 23.848 19.328 43.185 43.176 43.231v-95.219a8.313 8.313 0 0 0-8.314-8.313"/></svg>