<svg xmlns="http://www.w3.org/2000/svg" width="234" height="234" fill="none"><path fill="#7D7D7D" d="M181.133 17C200.942 17 217 33.059 217 52.868v128.265C217 200.942 200.942 217 181.133 217H52.868C33.06 217 17 200.942 17 181.133V52.868C17 33.058 33.059 17 52.868 17zM58.074 70.088v92.194h25.594v-25.869h12.66c18.713 0 38.666-9.632 38.666-33.575 0-20.503-14.724-32.75-40.868-32.75zm112.602 19.127c-12.522 0-21.192 2.202-29.861 6.054v67.013h24.081v-52.289c2.614-.963 5.505-1.377 10.595-1.377 2.614 0 5.78.276 7.432.689V90.591c-2.064-.688-6.606-1.376-12.247-1.376m-75.174 2.752c8.118 0 12.797 4.129 12.797 11.422 0 7.98-5.504 11.145-13.347 11.145H83.668V91.967z"/></svg>